# xmcd CD database file
#
# Track frame offsets:
#	150
#	6100
#	28082
#	34159
#	57558
#	59326
#	90912
#	114398
#	123555
#	159630
#	187464
#	196483
#	215118
#	231802
#	252163
#
# Disc length: 4076 seconds
#
# Revision: 0
# Processed by: cddbd v1.5.1PL2 Copyright (c) Steve Scherf et al.
# Submitted via: CDex 1.51
#
DISCID=da0fea0f
DTITLE=Fasching's Kuchlradio - Der König von Amstetten
DYEAR=1900
DGENRE=Jazz
TTITLE0=Intro
TTITLE1=Hazdeckenmaunn
TTITLE2=nix
TTITLE3=Band aus da Provinz
TTITLE4=Das geheime Wissen der Niederösterreicher
TTITLE5=Marslandung
TTITLE6=Dentibus Unitis
TTITLE7=Vom Socken-Janda
TTITLE8=Stadtcafé
TTITLE9=Gruß and Kuss
TTITLE10=Kurzer Einblick in die Probenarbeit mit dem Schngener Außengrenzlandchor
TTITLE11=Der Vorgartenbeleuchter
TTITLE12=Heimweh
TTITLE13=Atmen mit Franziska
TTITLE14=Der König von Amstetten
EXTD=
EXTT0=
EXTT1=
EXTT2=
EXTT3=
EXTT4=
EXTT5=
EXTT6=
EXTT7=
EXTT8=
EXTT9=
EXTT10=
EXTT11=
EXTT12=
EXTT13=
EXTT14=
PLAYORDER=
